<svg xmlns="http://www.w3.org/2000/svg" xmlns:xlink="http://www.w3.org/1999/xlink" viewBox="0 0 101 125" version="1.1" x="0px" y="0px"><title>K-Blockhead-01</title><desc>Created with Sketch.</desc><g stroke="none" stroke-width="1" fill="none" fill-rule="evenodd" transform="translate(1.000000, 0.000000)"><path d="M72.180574,10 C76.6381677,10 78.2545989,10.4641281 79.8842285,11.3356635 C81.5138581,12.207199 82.792801,13.4861419 83.6643365,15.1157715 C84.5358719,16.7454011 85,18.3618323 85,22.819426 L85,77.180574 C85,81.6381677 84.5358719,83.2545989 83.6643365,84.8842285 C82.792801,86.5138581 81.5138581,87.792801 79.8842285,88.6643365 C78.2545989,89.5358719 76.6381677,90 72.180574,90 L27.819426,90 C23.3618323,90 21.7454011,89.5358719 20.1157715,88.6643365 C18.4861419,87.792801 17.207199,86.5138581 16.3356635,84.8842285 C15.4641281,83.2545989 15,81.6381677 15,77.180574 L15,22.819426 C15,18.3618323 15.4641281,16.7454011 16.3356635,15.1157715 C17.207199,13.4861419 18.4861419,12.207199 20.1157715,11.3356635 C21.7454011,10.4641281 23.3618323,10 27.819426,10 L72.180574,10 Z M68,72 L32,72 C30.8954305,72 30,72.8954305 30,74 C30,75.1045695 30.8954305,76 32,76 L32,76 L68,76 C69.1045695,76 70,75.1045695 70,74 C70,72.8954305 69.1045695,72 68,72 L68,72 Z M29,45 L26,45 C26,50.5228475 30.4771525,55 36,55 C41.4292399,55 45.8479317,50.6733292 45.9961582,45.2799048 L46,45 L43,45 L42.995941,45.2406498 C42.8690987,48.9952166 39.7854517,52 36,52 C32.1340068,52 29,48.8659932 29,45 Z M57,45 L54,45 C54,50.5228475 58.4771525,55 64,55 C69.4292399,55 73.8479317,50.6733292 73.9961582,45.2799048 L74,45 L71,45 L70.995941,45.2406498 C70.8690987,48.9952166 67.7854517,52 64,52 C60.1340068,52 57,48.8659932 57,45 Z" fill="#000000"/></g><text x="0" y="115" fill="#000000" font-size="5px" font-weight="bold" font-family="'Helvetica Neue', Helvetica, Arial-Unicode, Arial, Sans-serif">Created by astro boy</text><text x="0" y="120" fill="#000000" font-size="5px" font-weight="bold" font-family="'Helvetica Neue', Helvetica, Arial-Unicode, Arial, Sans-serif">from the Noun Project</text></svg>